<?xml version="1.0" encoding="UTF-8"?>
<svg version="1.1" xmlns="http://www.w3.org/2000/svg" width="900" height="500">
<path d="M0 0 C297 0 594 0 900 0 C900 165 900 330 900 500 C603 500 306 500 0 500 C0 335 0 170 0 0 Z " fill="#FEFEFE" transform="translate(0,0)"/>
<path d="M0 0 C0.89083786 0.30300018 1.78167572 0.60600037 2.69950867 0.91818237 C5.57854738 1.903085 8.44957214 2.90915761 11.3203125 3.91796875 C13.31626395 4.60995764 15.31227673 5.30176965 17.30834961 5.9934082 C32.23969387 11.19895873 46.93964177 16.8010286 61.4453125 23.10546875 C62.55036133 23.58048828 63.65541016 24.05550781 64.79394531 24.54492188 C84.28493262 32.94325248 103.83597631 41.66260277 122.015625 52.67578125 C124.36394271 54.05758878 126.73557675 55.24858618 129.1953125 56.41796875 C133.87339477 58.70384986 138.27653499 61.36109589 142.6953125 64.10546875 C143.36916992 64.52094971 144.04302734 64.93643066 144.73730469 65.36450195 C150.81484481 69.18589439 156.13593597 72.84581309 159.7578125 79.23046875 C160.24894531 80.07867187 160.74007813 80.926875 161.24609375 81.80078125 C165.07500986 89.15928453 164.85391283 100.44018447 162.46875 108.33984375 C161.27719744 110.75218943 160.00001293 112.91271207 158.4453125 115.10546875 C157.8265625 116.03359375 157.2078125 116.96171875 156.5703125 117.91796875 C147.87755465 126.86639595 137.43702795 128.54247049 125.4453125 130.10546875 C124.18348145 130.27353027 122.92165039 130.4415918 121.62158203 130.61474609 C107.27975512 132.48703857 92.894906 133.81994344 78.47717285 134.94403076 C76.54635942 135.09744024 74.61640577 135.26156017 72.68652344 135.42626953 C28.06639924 139.15544812 -18.00238858 138.59418199 -62.64257812 135.37890625 C-66.55464225 135.10547191 -70.46708574 134.88187795 -74.3828125 134.66796875 C-76.7527132 134.52391813 -79.12251372 134.37820528 -81.4921875 134.23046875 C-83.03072388 134.14949951 -83.03072388 134.14949951 -84.6003418 134.06689453 C-91.23490965 133.59400934 -97.19845249 132.37019876 -102.11279297 127.58984375 C-105.69675599 123.40834212 -106.84669883 120.82279945 -106.76464844 115.29931641 C-106.41735715 111.67052629 -105.1402647 108.60645164 -103.6796875 105.29296875 C-103.36942627 104.56795166 -103.05916504 103.84293457 -102.73950195 103.09594727 C-91.70154792 77.87902667 -76.69008682 54.75624659 -58.5546875 34.10546875 C-57.80445313 33.24308594 -57.05421875 32.38070312 -56.28125 31.4921875 C-47.11411329 21.11710679 -37.45275594 11.65859677 -26.5546875 3.10546875 C-25.84570312 2.48285156 -25.13671875 1.86023438 -24.40625 1.21875 C-23.75398437 0.66574219 -23.10171875 0.11273438 -22.4296875 -0.45703125 C-21.89085937 -0.93269531 -21.35203125 -1.40835938 -20.796875 -1.8984375 C-14.05215392 -4.89478572 -6.56897161 -2.31946356 0 0 Z " fill="#010101" transform="translate(716.5546875,151.89453125)"/>
<path d="M0 0 C0.78486786 -0.00287018 1.56973572 -0.00574036 2.37838745 -0.00869751 C4.03074875 -0.01073211 5.68313447 -0.00524459 7.33544922 0.00732422 C9.86610488 0.02343061 12.39517403 0.00743391 14.92578125 -0.01171875 C16.53385769 -0.00973705 18.14193314 -0.0058949 19.75 0 C20.50628693 -0.00607269 21.26257385 -0.01214539 22.04177856 -0.0184021 C27.2264933 0.05120382 27.2264933 0.05120382 29.74438477 1.74658203 C30.7421875 3.3984375 30.7421875 3.3984375 30.69921875 6.2265625 C29.56065716 10.00008092 27.94410141 12.11670399 25.4296875 15.1484375 C9.86386312 34.48174994 -24.31823731 77.15513197 -22.2578125 103.3984375 C-20.30085899 106.84267568 -18.99266306 108.13707128 -15.24511719 109.4699707 C-10.56589073 110.69236141 -5.83214378 111.10596528 -1.0234375 111.50390625 C-0.02483704 111.58779099 0.97376343 111.67167572 2.00262451 111.75810242 C13.15993231 112.6164438 24.30696658 112.73519876 35.49267578 112.71411133 C38.97590537 112.71095227 42.45828057 112.73453268 45.94140625 112.75976562 C57.92261609 112.79416295 69.74469699 112.32781026 81.6640625 111.06640625 C82.80264709 110.9499324 83.94123169 110.83345856 85.11431885 110.7134552 C86.17326355 110.58911606 87.23220825 110.46477692 88.32324219 110.33666992 C89.25158875 110.22868576 90.1799353 110.1207016 91.13641357 110.00944519 C94.1445356 109.30409402 96.22348866 108.17250085 98.7421875 106.3984375 C100.87428436 102.13424377 100.31086991 97.22350331 98.93261719 92.80029297 C97.75177953 89.92754777 96.4658769 87.13384404 95.1171875 84.3359375 C94.6315332 83.30315674 94.14587891 82.27037598 93.64550781 81.20629883 C84.39438138 61.95155504 72.97701564 43.65598439 60.6796875 26.2109375 C60.09380859 25.37369141 59.50792969 24.53644531 58.90429688 23.67382812 C55.68009828 19.08265521 52.39353046 14.61147481 48.81079102 10.29174805 C47.39972495 7.79167554 47.34161173 6.22664299 47.7421875 3.3984375 C48.75634766 1.61083984 48.75634766 1.61083984 50.7421875 0.3984375 C53.41276076 0.10003894 55.8453565 -0.02207983 58.515625 0 C59.27638336 -0.00287018 60.03714172 -0.00574036 60.82095337 -0.00869751 C62.4297968 -0.01073796 64.03866504 -0.00520935 65.64746094 0.00732422 C68.10148152 0.02333503 70.55384415 0.00749907 73.0078125 -0.01171875 C74.57292028 -0.00973545 76.13802704 -0.00588996 77.703125 0 C78.43348969 -0.00607269 79.16385437 -0.01214539 79.91635132 -0.0184021 C86.1371299 0.0667718 89.66849046 2.07843417 93.9765625 6.3671875 C94.54600586 6.93252197 95.11544922 7.49785645 95.70214844 8.08032227 C96.29286133 8.68030029 96.88357422 9.28027832 97.4921875 9.8984375 C98.4207959 10.83610962 98.4207959 10.83610962 99.36816406 11.79272461 C104.52271421 17.05807475 109.22724765 22.57457931 113.7421875 28.3984375 C114.51691406 29.35621094 115.29164063 30.31398437 116.08984375 31.30078125 C133.86489248 53.63931317 147.34767416 79.1373256 155.7421875 106.3984375 C155.94118652 107.02927246 156.14018555 107.66010742 156.34521484 108.31005859 C159.31116942 117.8249186 162.53509313 128.50230339 158.0546875 137.9609375 C151.68175865 144.67834899 145.78146336 146.56915561 136.91796875 148.0546875 C136.05769577 148.20248657 135.19742279 148.35028564 134.31108093 148.50256348 C132.48674149 148.81449487 130.66192287 149.12363493 128.83666992 149.43017578 C126.10778441 149.88950026 123.38101581 150.36003722 120.65429688 150.83203125 C109.37868577 152.75993865 98.12180239 154.24971565 86.7421875 155.3984375 C84.91002615 155.60824197 83.07797238 155.81899113 81.24609375 156.03125 C34.66494916 160.92196597 -14.34823249 157.36380007 -60.1328125 147.8984375 C-61.07253906 147.70910645 -62.01226562 147.51977539 -62.98046875 147.32470703 C-70.23514559 145.72669568 -75.28491756 143.10805762 -80.2578125 137.3984375 C-86.72951444 117.98333167 -73.41122089 90.94870844 -64.90917969 73.65527344 C-58.60549406 61.28295486 -51.54227119 49.54094484 -43.2578125 38.3984375 C-42.81083008 37.79596191 -42.36384766 37.19348633 -41.90332031 36.57275391 C-36.03373558 28.73607652 -29.70781706 21.43661037 -22.98828125 14.3203125 C-20.16214563 11.29606437 -17.47709609 8.18625586 -14.85546875 4.984375 C-10.36182597 0.52369292 -6.12416377 -0.04943933 0 0 Z " fill="#010101" transform="translate(327.2578125,132.6015625)"/>
<path d="M0 0 C2.06020226 0.22568239 4.1208257 0.44678999 6.1817627 0.66564941 C16.88391954 1.80574172 27.565732 3.00660867 38.18078613 4.8013916 C39.22383911 4.97360229 39.22383911 4.97360229 40.28796387 5.14929199 C44.934416 5.99252147 44.934416 5.99252147 47.18078613 8.2388916 C47.02209388 11.06008723 46.28149399 12.13417232 44.31750488 14.1763916 C43.5092627 14.8570166 42.70102051 15.5376416 41.86828613 16.2388916 C37.74591473 19.82304809 33.79064941 23.50282098 29.93078613 27.3638916 C29.15807373 28.12911133 29.15807373 28.12911133 28.36975098 28.90979004 C25.65820568 31.62749194 23.25561153 34.3930779 20.99328613 37.4888916 C18.18078613 40.2388916 18.18078613 40.2388916 14.32531738 40.4967041 C8.2054663 40.305171 2.13611516 39.5460828 -3.94421387 38.8638916 C-27.40407346 36.38754859 -51.04063145 35.12009896 -74.63171387 34.9888916 C-75.65692139 34.97962646 -76.68212891 34.97036133 -77.73840332 34.96081543 C-78.65839111 34.96492432 -79.57837891 34.9690332 -80.52624512 34.9732666 C-81.31490967 34.97552246 -82.10357422 34.97777832 -82.9161377 34.98010254 C-85.05997551 35.07606691 -85.05997551 35.07606691 -86.81921387 37.2388916 C-87.56781475 40.98189601 -86.78049205 42.29925207 -84.69421387 45.5513916 C-83.74763517 46.7896332 -82.78880624 48.01858668 -81.81921387 49.2388916 C-80.87586191 50.44266184 -79.93857081 51.65120106 -79.00671387 52.8638916 C-78.47521729 53.51704346 -77.9437207 54.17019531 -77.39611816 54.84313965 C-75.81921387 57.2388916 -75.81921387 57.2388916 -74.6895752 60.61315918 C-73.06498774 64.73145612 -71.6484382 67.91758684 -67.81921387 70.2388916 C-58.98576482 72.34296589 -49.56073017 71.43283272 -40.5581665 71.01495361 C-35.82410715 70.81058242 -31.0861111 70.71655797 -26.34919739 70.60261536 C-23.83120871 70.53556675 -21.31362395 70.45047524 -18.79692078 70.3457489 C-17.66176529 70.30363785 -16.5266098 70.26152679 -15.35705566 70.21813965 C-14.35748337 70.17448776 -13.35791107 70.13083588 -12.32804871 70.08586121 C-9.81921387 70.2388916 -9.81921387 70.2388916 -6.81921387 72.2388916 C-7.41578495 76.16142378 -8.61944073 79.07929996 -10.54187012 82.53967285 C-11.02663818 83.42050537 -11.51140625 84.30133789 -12.01086426 85.2088623 C-12.62824463 86.31189697 -13.245625 87.41493164 -13.88171387 88.5513916 C-15.84108887 92.0782666 -17.80046387 95.6051416 -19.81921387 99.2388916 C-30.70921387 99.2388916 -41.59921387 99.2388916 -52.81921387 99.2388916 C-51.43733887 103.0957666 -50.05546387 106.9526416 -48.63171387 110.9263916 C-38.81921387 138.84583805 -38.81921387 138.84583805 -38.81921387 149.2388916 C-59.27921387 149.2388916 -79.73921387 149.2388916 -100.81921387 149.2388916 C-102.46921387 139.6688916 -104.11921387 130.0988916 -105.81921387 120.2388916 C-110.03726134 100.59167049 -115.74055414 82.18959037 -124.81921387 64.2388916 C-125.2215625 63.43306641 -125.62391113 62.62724121 -126.03845215 61.79699707 C-131.91437966 50.07784665 -138.16545342 38.88966358 -145.81921387 28.2388916 C-146.55784668 27.20635254 -147.29647949 26.17381348 -148.05749512 25.10998535 C-152.5215117 19.02845654 -157.26650456 13.22482039 -162.19006348 7.51379395 C-164.22554288 5.15108488 -166.08598876 2.83872927 -167.81921387 0.2388916 C-167.44421387 -1.9486084 -167.44421387 -1.9486084 -166.81921387 -3.7611084 C-111.05556495 -7.76743915 -55.52232881 -6.11482019 0 0 Z " fill="#010101" transform="translate(617.8192138671875,133.7611083984375)"/>
<path d="M0 0 C1.9375 1.125 1.9375 1.125 3 3 C2.7526305 8.48202736 0.29146423 11.78569156 -3 15.9375 C-7.69960401 22.09710819 -11.81952086 28.39276493 -15.734375 35.07421875 C-16.27783569 35.96488037 -16.27783569 35.96488037 -16.83227539 36.87353516 C-18.09924104 39.0751299 -18.09924104 39.0751299 -19.13452148 41.87255859 C-22.00804405 48.26115287 -24.97010605 51.51940866 -31.39259338 54.07861328 C-35.74356562 55.60898231 -40.14041515 56.94243075 -44.5625 58.25 C-46.42295475 58.83620418 -48.28192885 59.42712791 -50.1394043 60.02270508 C-53.77562395 61.18480207 -57.41686005 62.32774266 -61.06445312 63.45361328 C-67.21044588 65.36223098 -73.26893443 67.47512807 -79.3125 69.6875 C-80.16851807 69.99010742 -81.02453613 70.29271484 -81.90649414 70.60449219 C-87.3611975 72.57562869 -87.3611975 72.57562869 -92 76 C-92.9206574 78.32141032 -92.9206574 78.32141032 -92 81 C-90.4450676 82.87049221 -88.74995514 84.48774072 -86.97265625 86.1484375 C-83.71396783 89.20708762 -80.87531295 92.58326615 -78 96 C-77.53287598 96.55333008 -77.06575195 97.10666016 -76.58447266 97.67675781 C-47 132.88274181 -47 132.88274181 -47 143 C-68.78 143 -90.56 143 -113 143 C-117.29 133.76 -121.58 124.52 -126 115 C-130.78073503 106.16499512 -130.78073503 106.16499512 -137 98 C-142.08897127 97.50266978 -145.10751167 98.73567195 -149.55078125 101.1484375 C-150.46782585 101.64033318 -150.46782585 101.64033318 -151.40339661 102.14216614 C-153.38023323 103.20717769 -155.34644637 104.29023034 -157.3125 105.375 C-158.67851641 106.11825144 -160.04489212 106.86084288 -161.41162109 107.6027832 C-172.90854209 113.86556609 -184.35567506 120.17335791 -195.21875 127.49609375 C-196.11706543 128.09719971 -197.01538086 128.69830566 -197.94091797 129.31762695 C-199.68491615 130.49197828 -201.41903081 131.68119139 -203.14111328 132.88745117 C-207.96236667 136.14530688 -211.01391589 137.89113226 -217 137 C-220.81109682 136.21708889 -224.55682398 135.26386192 -228.3125 134.25 C-229.29412109 133.99734375 -230.27574219 133.7446875 -231.28710938 133.484375 C-247.9183309 129.0816691 -247.9183309 129.0816691 -251 126 C-251.31640625 123.1796875 -251.31640625 123.1796875 -251 120 C-248.0389228 116.30770325 -243.83617244 113.74515921 -240 111 C-238.80020508 110.13640869 -238.80020508 110.13640869 -237.57617188 109.25537109 C-169.08536313 60.23076903 -93.00778375 25.29266775 -12.23828125 1.9453125 C-4.33645861 -0.36137155 -4.33645861 -0.36137155 0 0 Z " fill="#010101" transform="translate(271,140)"/>
<path d="M0 0 C3.10424805 0.81933594 3.10424805 0.81933594 6.26171875 1.984375 C7.44878418 2.41878906 8.63584961 2.85320312 9.85888672 3.30078125 C11.13542741 3.78296487 12.41162336 4.26606202 13.6875 4.75 C15.02357835 5.24875662 16.35967899 5.74745353 17.69580078 6.24609375 C31.32581024 11.37230587 44.70101944 17.06997547 58 23 C59.11294434 23.4959668 60.22588867 23.99193359 61.37255859 24.50292969 C64.60690267 25.95086003 67.83614975 27.40935132 71.0625 28.875 C72.00722168 29.30296875 72.95194336 29.7309375 73.92529297 30.171875 C76.63293271 31.41716691 79.31953572 32.6972992 82 34 C83.0194873 34.48758789 84.03897461 34.97517578 85.08935547 35.47753906 C86.0898291 35.9825293 87.09030273 36.48751953 88.12109375 37.0078125 C89.48705688 37.68674561 89.48705688 37.68674561 90.88061523 38.37939453 C93 40 93 40 93.87133789 42.546875 C94 45 94 45 92.9375 47.2421875 C90.30874004 49.62715117 88.52529751 49.74146069 85 50.125 C84.36263916 50.1964624 83.72527832 50.2679248 83.06860352 50.34155273 C80.71432882 50.59040927 78.35884212 50.79889954 76 51 C75.01241699 51.08491699 74.02483398 51.16983398 73.00732422 51.25732422 C49.00208813 53.26411115 25.08713204 54.18683405 0.99951172 54.18530273 C-2.91839933 54.18752461 -6.83604337 54.20586478 -10.75390625 54.22460938 C-13.27083239 54.2275382 -15.78775984 54.22952641 -18.3046875 54.23046875 C-20.04224808 54.24124702 -20.04224808 54.24124702 -21.81491089 54.25224304 C-35.27073956 54.21424839 -35.27073956 54.21424839 -41 50.8125 C-42.6417015 47.83691603 -42.27498702 45.33813362 -42 42 C-40.34765625 39.078125 -40.34765625 39.078125 -38.0625 36.25 C-37.65427002 35.73614746 -37.24604004 35.22229492 -36.82543945 34.69287109 C-35.56571175 33.1153677 -34.28419983 31.55760368 -33 30 C-32.28070312 29.10023438 -31.56140625 28.20046875 -30.8203125 27.2734375 C-26.55702437 21.97946433 -22.15850369 16.79816811 -17.75 11.625 C-17.25459717 11.04186035 -16.75919434 10.4587207 -16.2487793 9.85791016 C-15.29646069 8.74689847 -14.33550928 7.64321648 -13.36523438 6.54785156 C-12.07481223 5.0848193 -10.82502275 3.58623705 -9.578125 2.0859375 C-6.15273908 -0.68551111 -4.33780222 -0.29583022 0 0 Z " fill="#FCFCFC" transform="translate(719,192)"/>
<path d="M0 0 C1.9840504 1.22037817 3.73800814 2.51209467 5.5078125 4.0234375 C6.2709375 4.6215625 7.0340625 5.2196875 7.8203125 5.8359375 C11.44072359 10.52906299 13.11740204 15.98723363 12.859375 21.9453125 C11.76053895 28.4406545 8.67444443 33.93819365 3.5078125 38.0234375 C-2.55091492 41.60921495 -8.55504963 41.85257748 -15.4921875 41.0234375 C-22.37194994 38.94947346 -25.77878397 35.08308666 -29.2421875 28.8984375 C-31.64857559 22.79605003 -31.58757079 15.73222674 -28.9921875 9.7109375 C-23.255418 -0.28214486 -10.67136364 -4.18156883 0 0 Z " fill="#0E0E0E" transform="translate(860.4921875,226.9765625)"/>
<path d="M0 0 C3.93792318 2.56821077 6.74612583 5.61725165 8.875 9.875 C9.02701874 12.78382009 9.10648077 15.65266672 9.125 18.5625 C9.145625 19.35333984 9.16625 20.14417969 9.1875 20.95898438 C9.22325513 26.37141726 8.43779124 30.08502113 5.875 34.875 C0.97648333 39.52859083 -3.02658815 40.16994496 -9.55078125 40.09375 C-14.1098976 39.70632888 -17.58515442 38.36174745 -20.9375 35.125 C-25.17996256 27.08664988 -25.45557057 17.5451748 -22.9375 8.875 C-21.44951536 5.02988081 -19.75635313 2.98625182 -16.125 0.875 C-10.61064414 -1.52254603 -5.71132191 -2.05607589 0 0 Z " fill="#080808" transform="translate(618.125,331.125)"/>
<path d="M0 0 C0.90298828 -0.020625 1.80597656 -0.04125 2.73632812 -0.0625 C7.72036073 -0.0917963 11.16609959 -0.02839881 15.1875 3.25 C15.77789062 3.71664063 16.36828125 4.18328125 16.9765625 4.6640625 C18.99463046 7.30708054 18.58638084 9.81172477 18.4921875 13.01953125 C18.09133971 15.9539426 16.98764935 17.92480709 15.1875 20.25 C15.91453125 20.82621094 15.91453125 20.82621094 16.65625 21.4140625 C19.23266658 24.50313341 18.71060451 27.70568353 18.61328125 31.578125 C18.1875 34.25 18.1875 34.25 15.875 37.375 C12.24095832 39.91037792 9.65755522 40.37712937 5.3359375 40.3828125 C4.40265625 40.38410156 3.469375 40.38539063 2.5078125 40.38671875 C1.53585938 40.38285156 0.56390625 40.37898438 -0.4375 40.375 C-1.4171875 40.37886719 -2.396875 40.38273437 -3.40625 40.38671875 C-4.33695313 40.38542969 -5.26765625 40.38414062 -6.2265625 40.3828125 C-7.50974365 40.38112061 -7.50974365 40.38112061 -8.81884766 40.37939453 C-10.8125 40.25 -10.8125 40.25 -11.8125 39.25 C-11.90111992 36.4383662 -11.92772355 33.65141745 -11.91015625 30.83984375 C-11.9087413 29.99780899 -11.90732635 29.15577423 -11.90586853 28.28822327 C-11.90025263 25.58794665 -11.88769748 22.88775172 -11.875 20.1875 C-11.86998705 18.36132932 -11.86542379 16.53515734 -11.86132812 14.70898438 C-11.85027804 10.22262458 -11.83300279 5.73632616 -11.8125 1.25 C-8.19771286 -0.55739357 -3.98017454 0.02243932 0 0 Z " fill="#040404" transform="translate(29.8125,330.75)"/>
<path d="M0 0 C0.89912109 -0.02900391 1.79824219 -0.05800781 2.72460938 -0.08789062 C9.79664089 -0.15534214 13.00794391 1.22824765 18.1875 6.0625 C19.87292615 9.43335231 19.84943592 12.66278694 19.3125 16.3125 C17.60809476 20.23263204 16.11094086 21.57023993 12.3125 23.3125 C12.89 24.37210937 13.4675 25.43171875 14.0625 26.5234375 C14.81271788 27.91134058 15.56270601 29.29936787 16.3125 30.6875 C16.6940625 31.38617188 17.075625 32.08484375 17.46875 32.8046875 C20.3125 38.0859375 20.3125 38.0859375 20.3125 40.3125 C17.0125 40.3125 13.7125 40.3125 10.3125 40.3125 C9.86519531 39.38566406 9.41789062 38.45882812 8.95703125 37.50390625 C8.34728777 36.29379996 7.73655885 35.08418986 7.125 33.875 C6.83302734 33.26333984 6.54105469 32.65167969 6.24023438 32.02148438 C5.24773219 29.9980257 5.24773219 29.9980257 3.3125 27.3125 C1.6625 26.9825 0.0125 26.6525 -1.6875 26.3125 C-1.6875 30.9325 -1.6875 35.5525 -1.6875 40.3125 C-4.6575 40.3125 -7.6275 40.3125 -10.6875 40.3125 C-10.71214775 34.77661467 -10.73033496 29.240761 -10.74243164 23.70483398 C-10.74747244 21.8200627 -10.75430498 19.93529535 -10.76293945 18.05053711 C-10.77501617 15.34748364 -10.78073068 12.64448169 -10.78515625 9.94140625 C-10.79031754 9.09349014 -10.79547882 8.24557404 -10.80079651 7.3719635 C-10.80099195 5.35178932 -10.74956211 3.33172066 -10.6875 1.3125 C-8.39789012 -0.97710988 -3.07076906 0.03232388 0 0 Z " fill="#050505" transform="translate(442.6875,330.6875)"/>
<path d="M0 0 C2.19140625 0.02734375 2.19140625 0.02734375 4.25 0.5625 C6.52641484 2.89961923 7.79272904 5.66751877 9.25 8.5625 C10.17279045 10.07159378 11.10973863 11.57214702 12.0625 13.0625 C12.784375 14.2175 13.50625 15.3725 14.25 16.5625 C17.22 11.2825 20.19 6.0025 23.25 0.5625 C26.22 0.5625 29.19 0.5625 32.25 0.5625 C32.25 13.7625 32.25 26.9625 32.25 40.5625 C29.28 40.5625 26.31 40.5625 23.25 40.5625 C22.755 29.1775 22.755 29.1775 22.25 17.5625 C20.6 20.5325 18.95 23.5025 17.25 26.5625 C14.94 26.5625 12.63 26.5625 10.25 26.5625 C8.6 23.5925 6.95 20.6225 5.25 17.5625 C4.92 25.1525 4.59 32.7425 4.25 40.5625 C1.28 40.5625 -1.69 40.5625 -4.75 40.5625 C-4.77464775 35.02661467 -4.79283496 29.490761 -4.80493164 23.95483398 C-4.80997244 22.0700627 -4.81680498 20.18529535 -4.82543945 18.30053711 C-4.83751617 15.59748364 -4.84323068 12.89448169 -4.84765625 10.19140625 C-4.85281754 9.34349014 -4.85797882 8.49557404 -4.86329651 7.6219635 C-4.86349195 5.60178932 -4.81206211 3.58172066 -4.75 1.5625 C-3.75 0.5625 -3.75 0.5625 0 0 Z " fill="#090909" transform="translate(650.75,330.4375)"/>
<path d="M0 0 C2.97 0 5.94 0 9 0 C11.22087298 2.4900697 12.38961403 4.16483779 13.8125 7.0625 C14.16763672 7.71927734 14.52277344 8.37605469 14.88867188 9.05273438 C15.56240862 10.30290402 16.22240068 11.56067214 16.86254883 12.82836914 C18.4884252 15.93250529 20.26144992 18.95753737 22 22 C22.33 14.74 22.66 7.48 23 0 C25.97 0 28.94 0 32 0 C32 12.87 32 25.74 32 39 C22 39 22 39 19.76318359 37.19580078 C19.31281738 36.37063965 18.86245117 35.54547852 18.3984375 34.6953125 C17.88925781 33.80199219 17.38007812 32.90867187 16.85546875 31.98828125 C16.36691406 31.04339844 15.87835937 30.09851563 15.375 29.125 C14.58416016 27.71927734 14.58416016 27.71927734 13.77734375 26.28515625 C10 19.46631494 10 19.46631494 10 17 C9.34 17 8.68 17 8 17 C8 24.26 8 31.52 8 39 C5.36 39 2.72 39 0 39 C0 26.13 0 13.26 0 0 Z " fill="#070707" transform="translate(798,331)"/>
<path d="M0 0 C4.3613606 3.65139151 5.87464437 6.61786786 7.23828125 12.09375 C7.49402168 13.09746643 7.49402168 13.09746643 7.75492859 14.12145996 C8.10987159 15.52798607 8.45650213 16.93663367 8.79516602 18.34716797 C9.31204923 20.49812415 9.85381849 22.64157248 10.40039062 24.78515625 C13.23346746 36.11977692 13.23346746 36.11977692 13 41 C10.03 41 7.06 41 4 41 C2.68373308 37.38026598 2 34.90432869 2 31 C-1.96 31 -5.92 31 -10 31 C-10.2165625 33.1965625 -10.2165625 33.1965625 -10.4375 35.4375 C-10.875 39.875 -10.875 39.875 -12 41 C-13.51928038 41.07179964 -15.04167482 41.08392007 -16.5625 41.0625 C-17.38878906 41.05347656 -18.21507812 41.04445313 -19.06640625 41.03515625 C-19.70449219 41.02355469 -20.34257813 41.01195312 -21 41 C-20.26899141 33.83083144 -18.77936708 26.89817534 -17.1875 19.875 C-16.93935547 18.72128906 -16.69121094 17.56757813 -16.43554688 16.37890625 C-15.09857781 10.47991295 -13.96602137 5.64981815 -10 1 C-6.84203893 -0.57898053 -3.39329364 -0.81928171 0 0 Z " fill="#060606" transform="translate(767,330)"/>
<path d="M0 0 C3.22033671 1.53117896 5.06592828 3.15423289 6.875 6.25 C7.69957655 11.23460237 7.67232925 15.77800753 5.25 20.25 C-0.72801619 25.28411889 -5.58285647 25.65244639 -13.125 25.25 C-13.11339844 26.17683594 -13.10179687 27.10367187 -13.08984375 28.05859375 C-13.08082031 29.25613281 -13.07179688 30.45367187 -13.0625 31.6875 C-13.05089844 32.88246094 -13.03929687 34.07742188 -13.02734375 35.30859375 C-13.125 38.25 -13.125 38.25 -14.125 39.25 C-15.9375 39.3828125 -15.9375 39.3828125 -18.125 39.375 C-18.846875 39.37757813 -19.56875 39.38015625 -20.3125 39.3828125 C-22.125 39.25 -22.125 39.25 -23.125 38.25 C-23.41668353 33.01372673 -23.43900875 27.77487119 -23.47509766 22.53125 C-23.4916669 20.76386354 -23.51896997 18.99654435 -23.55712891 17.22949219 C-23.61179148 14.68649407 -23.63375333 12.1450683 -23.6484375 9.6015625 C-23.67110687 8.81085358 -23.69377625 8.02014465 -23.71713257 7.20547485 C-23.70849609 4.97119141 -23.70849609 4.97119141 -23.125 1.25 C-16.9445749 -4.00934738 -7.1243825 -2.95486684 0 0 Z " fill="#0C0C0C" transform="translate(726.125,331.75)"/>
<path d="M0 0 C0.85078125 0.00322266 1.7015625 0.00644531 2.578125 0.00976562 C3.46757812 0.01814453 4.35703125 0.02652344 5.2734375 0.03515625 C6.170625 0.03966797 7.0678125 0.04417969 7.9921875 0.04882812 C10.21100398 0.06063034 12.42968768 0.0770947 14.6484375 0.09765625 C14.6484375 2.73765625 14.6484375 5.37765625 14.6484375 8.09765625 C9.6984375 8.09765625 4.7484375 8.09765625 -0.3515625 8.09765625 C-0.3515625 10.73765625 -0.3515625 13.37765625 -0.3515625 16.09765625 C4.5984375 16.09765625 9.5484375 16.09765625 14.6484375 16.09765625 C14.6484375 18.40765625 14.6484375 20.71765625 14.6484375 23.09765625 C9.6984375 23.09765625 4.7484375 23.09765625 -0.3515625 23.09765625 C-0.3515625 26.06765625 -0.3515625 29.03765625 -0.3515625 32.09765625 C4.5984375 32.09765625 9.5484375 32.09765625 14.6484375 32.09765625 C14.6484375 34.73765625 14.6484375 37.37765625 14.6484375 40.09765625 C11.58445299 40.23296469 8.52646624 40.33189695 5.4609375 40.41015625 C4.59662109 40.45205078 3.73230469 40.49394531 2.84179688 40.53710938 C-1.69904588 40.6240987 -3.68789437 40.60496723 -7.40234375 37.765625 C-11.41202632 32.2774222 -10.60861447 26.3243275 -10.6640625 19.78515625 C-10.69306641 18.65658203 -10.72207031 17.52800781 -10.75195312 16.36523438 C-10.80062927 10.00363728 -10.77423726 5.86495501 -6.3515625 1.09765625 C-4.00303722 -0.07660639 -2.61382185 -0.01742548 0 0 Z " fill="#0B0B0B" transform="translate(278.3515625,330.90234375)"/>
<path d="M0 0 C0.85078125 0.00322266 1.7015625 0.00644531 2.578125 0.00976562 C3.46757812 0.01814453 4.35703125 0.02652344 5.2734375 0.03515625 C6.170625 0.03966797 7.0678125 0.04417969 7.9921875 0.04882812 C10.21100398 0.06063034 12.42968768 0.0770947 14.6484375 0.09765625 C14.6484375 2.73765625 14.6484375 5.37765625 14.6484375 8.09765625 C9.6984375 8.09765625 4.7484375 8.09765625 -0.3515625 8.09765625 C-0.3515625 10.73765625 -0.3515625 13.37765625 -0.3515625 16.09765625 C4.2684375 16.09765625 8.8884375 16.09765625 13.6484375 16.09765625 C13.6484375 18.40765625 13.6484375 20.71765625 13.6484375 23.09765625 C8.6984375 23.09765625 3.7484375 23.09765625 -1.3515625 23.09765625 C-1.0215625 25.73765625 -0.6915625 28.37765625 -0.3515625 31.09765625 C4.5984375 31.42765625 9.5484375 31.75765625 14.6484375 32.09765625 C14.6484375 34.73765625 14.6484375 37.37765625 14.6484375 40.09765625 C11.58445299 40.23296469 8.52646624 40.33189695 5.4609375 40.41015625 C4.59662109 40.45205078 3.73230469 40.49394531 2.84179688 40.53710938 C-1.69904588 40.6240987 -3.68789437 40.60496723 -7.40234375 37.765625 C-11.49991717 32.1571227 -10.60989175 25.90371603 -10.6640625 19.22265625 C-10.69306641 18.03800781 -10.72207031 16.85335938 -10.75195312 15.6328125 C-10.76033203 14.48941406 -10.76871094 13.34601563 -10.77734375 12.16796875 C-10.79192627 11.12398926 -10.80650879 10.08000977 -10.8215332 9.00439453 C-10.23410336 5.37117912 -8.87551771 3.72350936 -6.3515625 1.09765625 C-4.00303722 -0.07660639 -2.61382185 -0.01742548 0 0 Z " fill="#0B0B0B" transform="translate(490.3515625,330.90234375)"/>
<path d="M0 0 C3.3 0 6.6 0 10 0 C10.42152344 1.07121094 10.84304688 2.14242188 11.27734375 3.24609375 C11.83059319 4.64328302 12.38398602 6.04041551 12.9375 7.4375 C13.21529297 8.14455078 13.49308594 8.85160156 13.77929688 9.58007812 C14.96222034 13.04673881 14.96222034 13.04673881 17 16 C18.98 10.72 20.96 5.44 23 0 C25.97 0 28.94 0 32 0 C31.39924839 5.23394555 29.69877339 9.49885836 27.5625 14.25 C27.24990234 14.96929687 26.93730469 15.68859375 26.61523438 16.4296875 C24.26607143 21.73392857 24.26607143 21.73392857 22 24 C21.6936141 26.73434962 21.4886664 29.38279821 21.375 32.125 C21.33632813 32.87910156 21.29765625 33.63320313 21.2578125 34.41015625 C21.16348969 36.27303184 21.08065338 38.13648255 21 40 C17.7 40 14.4 40 11 40 C11.00902344 39.00742187 11.01804687 38.01484375 11.02734375 36.9921875 C10.90150627 27.75686074 9.33063477 21.23280587 4.7890625 13.18359375 C0 4.66157205 0 4.66157205 0 0 Z " fill="#0A0A0A" transform="translate(381,331)"/>
<path d="M0 0 C3.3 0 6.6 0 10 0 C10.42152344 1.07121094 10.84304687 2.14242188 11.27734375 3.24609375 C11.83059319 4.64328302 12.38398602 6.04041551 12.9375 7.4375 C13.21529297 8.14455078 13.49308594 8.85160156 13.77929688 9.58007812 C14.96222034 13.04673881 14.96222034 13.04673881 17 16 C17.42152344 14.92878906 17.84304687 13.85757812 18.27734375 12.75390625 C18.83059319 11.35671698 19.38398602 9.95958449 19.9375 8.5625 C20.21529297 7.85544922 20.49308594 7.14839844 20.77929688 6.41992188 C22.88671875 1.11328125 22.88671875 1.11328125 24 0 C26.67058851 -0.14115161 29.32432238 -0.04247107 32 0 C31.39924839 5.23394555 29.69877339 9.49885836 27.5625 14.25 C27.24990234 14.96929687 26.93730469 15.68859375 26.61523438 16.4296875 C24.26607143 21.73392857 24.26607143 21.73392857 22 24 C21.6936141 26.73434962 21.4886664 29.38279821 21.375 32.125 C21.33632812 32.87910156 21.29765625 33.63320313 21.2578125 34.41015625 C21.16348969 36.27303184 21.08065338 38.13648255 21 40 C17.7 40 14.4 40 11 40 C11 34.39 11 28.78 11 23 C10.34 23 9.68 23 9 23 C7.4908559 19.73330954 5.99428299 16.46101184 4.5 13.1875 C4.07074219 12.25873047 3.64148438 11.32996094 3.19921875 10.37304688 C2.79316406 9.48037109 2.38710937 8.58769531 1.96875 7.66796875 C1.59169922 6.84578857 1.21464844 6.0236084 0.82617188 5.17651367 C0 3 0 3 0 0 Z " fill="#0A0A0A" transform="translate(137,331)"/>
<path d="M0 0 C1.0199707 0.01450195 1.0199707 0.01450195 2.06054688 0.02929688 C7.01797672 0.14297672 7.01797672 0.14297672 8.1875 1.3125 C8.22842937 3.64547433 8.22991723 5.97955225 8.1875 8.3125 C7.27226562 8.36148437 6.35703125 8.41046875 5.4140625 8.4609375 C4.22554687 8.53570312 3.03703125 8.61046875 1.8125 8.6875 C0.03746094 8.79191406 0.03746094 8.79191406 -1.7734375 8.8984375 C-4.91812319 9.01467346 -4.91812319 9.01467346 -6.8125 11.3125 C-7.12153289 13.21478305 -7.12153289 13.21478305 -7.078125 15.375 C-7.08070313 16.17164063 -7.08328125 16.96828125 -7.0859375 17.7890625 C-7.07820312 18.62179687 -7.07046875 19.45453125 -7.0625 20.3125 C-7.07023438 21.14523437 -7.07796875 21.97796875 -7.0859375 22.8359375 C-7.08335937 23.63257813 -7.08078125 24.42921875 -7.078125 25.25 C-7.07586914 25.98089844 -7.07361328 26.71179688 -7.07128906 27.46484375 C-6.96698561 29.55947364 -6.96698561 29.55947364 -4.8125 31.3125 C-1.69053664 31.77736718 -1.69053664 31.77736718 1.8125 31.9375 C3.59527344 32.04964844 3.59527344 32.04964844 5.4140625 32.1640625 C6.32929688 32.21304687 7.24453125 32.26203125 8.1875 32.3125 C8.1875 34.6225 8.1875 36.9325 8.1875 39.3125 C3.53439457 41.63905271 -2.74823176 40.71625715 -7.8125 40.3125 C-13.03580109 38.06107712 -15.63617595 34.47953487 -17.8125 29.3125 C-18.35002398 26.47602208 -18.38660963 23.75528685 -18.3125 20.875 C-18.30041504 20.12581299 -18.28833008 19.37662598 -18.27587891 18.60473633 C-18.06988782 12.88380194 -17.3032706 8.99748159 -13.8125 4.3125 C-9.14010353 0.48401655 -5.98881175 -0.17043723 0 0 Z " fill="#0C0C0C" transform="translate(201.8125,330.6875)"/>
<path d="M0 0 C3.3 0 6.6 0 10 0 C10.42152344 1.07121094 10.84304688 2.14242188 11.27734375 3.24609375 C11.83059319 4.64328302 12.38398602 6.04041551 12.9375 7.4375 C13.21529297 8.14455078 13.49308594 8.85160156 13.77929688 9.58007812 C14.96222034 13.04673881 14.96222034 13.04673881 17 16 C17.42152344 14.92878906 17.84304688 13.85757812 18.27734375 12.75390625 C18.83059319 11.35671698 19.38398602 9.95958449 19.9375 8.5625 C20.21529297 7.85544922 20.49308594 7.14839844 20.77929688 6.41992188 C22.88671875 1.11328125 22.88671875 1.11328125 24 0 C25.51928038 -0.07179964 27.04167482 -0.08392007 28.5625 -0.0625 C29.38878906 -0.05347656 30.21507812 -0.04445313 31.06640625 -0.03515625 C31.70449219 -0.02355469 32.34257813 -0.01195312 33 0 C30.85381235 7.32228727 27.55599323 18.44400677 22 24 C21.76321284 26.69235776 21.57801975 29.36498156 21.4375 32.0625 C21.39431641 32.82111328 21.35113281 33.57972656 21.30664062 34.36132812 C21.20026367 36.24065438 21.09960066 38.12030244 21 40 C18.03 40 15.06 40 12 40 C11.96261719 38.87980469 11.92523437 37.75960937 11.88671875 36.60546875 C11.82105743 35.1327791 11.75461014 33.66012434 11.6875 32.1875 C11.66494141 31.44951172 11.64238281 30.71152344 11.61914062 29.95117188 C11.40460023 25.64086037 11.03051354 23.91830664 8 21 C6.92504883 18.94702148 6.92504883 18.94702148 5.95703125 16.62109375 C5.60576172 15.78255859 5.25449219 14.94402344 4.89257812 14.08007812 C4.35793945 12.77200195 4.35793945 12.77200195 3.8125 11.4375 C3.26045898 10.12362305 3.26045898 10.12362305 2.69726562 8.78320312 C0 2.28274293 0 2.28274293 0 0 Z " fill="#060606" transform="translate(847,331)"/>
<path d="M0 0 C0.68449219 0.00515625 1.36898437 0.0103125 2.07421875 0.015625 C7.09516474 0.09516474 7.09516474 0.09516474 8.25 1.25 C8.29092937 3.58297433 8.29241723 5.91705225 8.25 8.25 C6.87714844 8.30607422 6.87714844 8.30607422 5.4765625 8.36328125 C4.28804687 8.42902344 3.09953125 8.49476563 1.875 8.5625 C0.69164062 8.62050781 -0.49171875 8.67851562 -1.7109375 8.73828125 C-2.71382812 8.90714844 -3.71671875 9.07601563 -4.75 9.25 C-7.24111925 12.98667887 -7.04613477 15.92870976 -7 20.25 C-7.00773438 20.97445313 -7.01546875 21.69890625 -7.0234375 22.4453125 C-7.00942063 26.24388493 -6.90441944 28.01837084 -4.75 31.25 C-1.63389446 31.83592634 -1.63389446 31.83592634 1.875 31.9375 C3.06351563 32.00324219 4.25203125 32.06898438 5.4765625 32.13671875 C6.39179687 32.17410156 7.30703125 32.21148437 8.25 32.25 C8.25 34.89 8.25 37.53 8.25 40.25 C-7.68607044 41.28307059 -7.68607044 41.28307059 -12.125 37.5 C-17.03702592 32.29903137 -17.11508978 27.27059868 -17.125 20.4375 C-17.14949219 19.56029297 -17.17398438 18.68308594 -17.19921875 17.77929688 C-17.22634073 11.73561506 -16.4055539 8.12199249 -12.75 3.25 C-8.79172148 -0.10771213 -4.99236173 -0.15390711 0 0 Z " fill="#060606" transform="translate(569.75,330.75)"/>
<path d="M0 0 C1.02673828 0.01450195 1.02673828 0.01450195 2.07421875 0.02929688 C7.08080832 0.14330832 7.08080832 0.14330832 8.25 1.3125 C8.29092937 3.64547433 8.29241723 5.97955225 8.25 8.3125 C6.87714844 8.36857422 6.87714844 8.36857422 5.4765625 8.42578125 C4.28804687 8.49152344 3.09953125 8.55726563 1.875 8.625 C0.69164063 8.68300781 -0.49171875 8.74101562 -1.7109375 8.80078125 C-2.71382812 8.96964844 -3.71671875 9.13851563 -4.75 9.3125 C-7.24111925 13.04917887 -7.04613477 15.99120976 -7 20.3125 C-7.00773437 21.03695313 -7.01546875 21.76140625 -7.0234375 22.5078125 C-7.00942063 26.30638493 -6.90441944 28.08087084 -4.75 31.3125 C-1.63389446 31.89842634 -1.63389446 31.89842634 1.875 32 C3.06351563 32.06574219 4.25203125 32.13148438 5.4765625 32.19921875 C6.39179687 32.23660156 7.30703125 32.27398437 8.25 32.3125 C8.29241723 34.64544775 8.29092937 36.97952567 8.25 39.3125 C5.94234716 41.62015284 1.16285153 40.73776551 -1.94604492 40.77441406 C-7.13662209 40.66272203 -9.9838164 39.72302154 -13.55078125 36.015625 C-17.15931032 30.89080847 -17.1161906 26.54241392 -17.125 20.4375 C-17.14949219 19.55191406 -17.17398438 18.66632813 -17.19921875 17.75390625 C-17.23098434 10.64900165 -15.45460101 7.12435243 -10.484375 1.95703125 C-6.95999895 -0.1626292 -3.98273074 -0.17266174 0 0 Z " fill="#060606" transform="translate(112.75,330.6875)"/>
<path d="M0 0 C1.9840504 1.22037817 3.73800814 2.51209467 5.5078125 4.0234375 C6.2709375 4.6215625 7.0340625 5.2196875 7.8203125 5.8359375 C11.44072359 10.52906299 13.11740204 15.98723363 12.859375 21.9453125 C11.76053895 28.4406545 8.67444443 33.93819365 3.5078125 38.0234375 C-2.55091492 41.60921495 -8.55504963 41.85257748 -15.4921875 41.0234375 C-22.37194994 38.94947346 -25.77878397 35.08308666 -29.2421875 28.8984375 C-31.64857559 22.79605003 -31.58757079 15.73222674 -28.9921875 9.7109375 C-23.255418 -0.28214486 -10.67136364 -4.18156883 0 0 Z M-22.2421875 8.9609375 C-25.69340833 13.65843251 -27.01483032 16.82799128 -26.87109375 22.64453125 C-25.99967977 28.11557368 -22.77477323 31.80192728 -18.8671875 35.5234375 C-13.03751718 38.11440209 -6.55445222 38.08584927 -0.5546875 35.8359375 C4.23647358 33.00035237 7.04247944 29.39632537 8.5078125 24.0234375 C9.08985885 19.270059 9.02462956 16.00169837 6.7578125 11.7109375 C1.31634105 5.21130931 1.31634105 5.21130931 -6.6015625 2.80078125 C-13.19013087 2.54652442 -17.80355584 3.86425289 -22.2421875 8.9609375 Z " fill="#F3F3F3" transform="translate(860.4921875,226.9765625)"/>
<path d="M0 0 C9.57 0 19.14 0 29 0 C29 2.31 29 4.62 29 7 C25.7 7 22.4 7 19 7 C19 17.89 19 28.78 19 40 C16.03 40 13.06 40 10 40 C10 29.11 10 18.22 10 7 C6.7 7 3.4 7 0 7 C0 4.69 0 2.38 0 0 Z " fill="#000000" transform="translate(337,331)"/>
<path d="M0 0 C0.721875 0.00257813 1.44375 0.00515625 2.1875 0.0078125 C2.909375 0.00523437 3.63125 0.00265625 4.375 0 C6.1875 0.1328125 6.1875 0.1328125 7.1875 1.1328125 C7.27540975 3.42432667 7.29444038 5.71853774 7.28515625 8.01171875 C7.2837413 8.6983812 7.28232635 9.38504364 7.28086853 10.09251404 C7.27525479 12.29349051 7.26270007 14.49436659 7.25 16.6953125 C7.24498676 18.18424333 7.24042355 19.67317574 7.23632812 21.16210938 C7.22528093 24.81904325 7.20800713 28.47591808 7.1875 32.1328125 C8.57775391 32.11541016 8.57775391 32.11541016 9.99609375 32.09765625 C11.19363281 32.08863281 12.39117187 32.07960938 13.625 32.0703125 C14.81996094 32.05871094 16.01492187 32.04710937 17.24609375 32.03515625 C20.1875 32.1328125 20.1875 32.1328125 21.1875 33.1328125 C21.22842937 35.46578683 21.22991723 37.79986475 21.1875 40.1328125 C18.29009378 40.26820531 15.39904379 40.36708079 12.5 40.4453125 C11.68337891 40.48720703 10.86675781 40.52910156 10.02539062 40.57226562 C5.64345576 40.66096876 3.77743582 40.57621834 0.16796875 37.86328125 C-3.07987487 33.38548502 -2.94029412 29.6852395 -2.9453125 24.21484375 C-2.94626923 23.55699387 -2.94722595 22.89914398 -2.94821167 22.22135925 C-2.94888993 20.83710636 -2.94706041 19.45285023 -2.94287109 18.06860352 C-2.937492 15.94214836 -2.94284112 13.81590196 -2.94921875 11.68945312 C-2.94855841 10.34374953 -2.94727816 8.99804607 -2.9453125 7.65234375 C-2.94418457 6.42620361 -2.94305664 5.20006348 -2.94189453 3.93676758 C-2.76958922 0.20294404 -2.76958922 0.20294404 0 0 Z " fill="#121212" transform="translate(230.8125,330.8671875)"/>
<path d="M0 0 C3.3 0 6.6 0 10 0 C10.02464775 5.53588533 10.04283496 11.071739 10.05493164 16.60766602 C10.05997244 18.4924373 10.06680498 20.37720465 10.07543945 22.26196289 C10.08751617 24.96501636 10.09323068 27.66801831 10.09765625 30.37109375 C10.10281754 31.21900986 10.10797882 32.06692596 10.11329651 32.9405365 C10.11349195 34.96071068 10.06206211 36.98077934 10 39 C9.505 39.495 9.505 39.495 9 40 C6.03 40 3.06 40 0 40 C0 26.8 0 13.6 0 0 Z " fill="#151515" transform="translate(67,331)"/>
<path d="M0 0 C2.413125 -0.0825 4.82625 -0.165 7.3125 -0.25 C8.06829346 -0.28641602 8.82408691 -0.32283203 9.6027832 -0.36035156 C12.86506835 -0.41452638 14.54284224 -0.43521418 16.953125 1.859375 C18.26776082 4.54751093 18.51733385 6.04380655 18 9 C16 11.3125 16 11.3125 14 13 C14.3609375 13.56589844 14.721875 14.13179687 15.09375 14.71484375 C15.5578125 15.44832031 16.021875 16.18179688 16.5 16.9375 C16.9640625 17.66839844 17.428125 18.39929688 17.90625 19.15234375 C19 21 19 21 19 22 C16.3125 22.5 16.3125 22.5 13 22 C11.46602189 20.04647233 10.37865298 18.06984483 9.2734375 15.84765625 C7.97286174 13.52489327 7.97286174 13.52489327 4 13 C4 15.97 4 18.94 4 22 C2.68 22 1.36 22 0 22 C0 14.74 0 7.48 0 0 Z " fill="#F9F9F9" transform="translate(842,236)"/>
<path d="M0 0 C3.5 0.375 3.5 0.375 6.5 2.375 C7.6053873 5.6911619 7.66753642 8.26036635 7.6875 11.75 C7.70167969 12.87148438 7.71585938 13.99296875 7.73046875 15.1484375 C7.5014489 18.35471543 6.97296065 20.53244436 5.5 23.375 C2.38122044 24.93438978 -0.07255771 24.7357834 -3.5 24.375 C-6.80535064 20.38578371 -6.90514354 16.87159097 -6.875 11.8125 C-6.88273438 10.51183594 -6.89046875 9.21117187 -6.8984375 7.87109375 C-6.30559268 2.6691711 -5.33484091 0.5715901 0 0 Z " fill="#F4F4F4" transform="translate(610.5,338.625)"/>
<path d="M0 0 C7.35678392 -0.36180905 7.35678392 -0.36180905 10 1.125 C11.47271848 3.88634715 11.39191116 5.93002928 11 9 C7.91111478 11.05925681 7.29064073 11.2390374 3.8125 11.125 C1.9253125 11.063125 1.9253125 11.063125 0 11 C0 7.37 0 3.74 0 0 Z " fill="#F5F5F5" transform="translate(713,338)"/>
<path d="M0 0 C1.60875 -0.04125 3.2175 -0.0825 4.875 -0.125 C5.77992187 -0.14820313 6.68484375 -0.17140625 7.6171875 -0.1953125 C10 0 10 0 12 2 C12.35928679 4.80243693 12.48891217 6.34292696 10.7734375 8.6484375 C8.47822234 10.39765434 7.16269248 10.31142141 4.3125 10.1875 C2.889375 10.125625 1.46625 10.06375 0 10 C0 6.7 0 3.4 0 0 Z " fill="#F1F1F1" transform="translate(27,354)"/>
<path d="M0 0 C1.258125 -0.04125 2.51625 -0.0825 3.8125 -0.125 C4.52019531 -0.14820313 5.22789062 -0.17140625 5.95703125 -0.1953125 C8 0 8 0 11 2 C11.3125 5 11.3125 5 11 8 C9 10 9 10 6.8359375 10.1953125 C4.55729167 10.13020833 2.27864583 10.06510417 0 10 C0 6.7 0 3.4 0 0 Z " fill="#F6F6F6" transform="translate(441,338)"/>
<path d="M0 0 C8.625 -0.25 8.625 -0.25 12 2 C12.1875 5.125 12.1875 5.125 12 8 C9.47524538 9.26237731 7.68799534 9.09856404 4.875 9.0625 C3.96492188 9.05347656 3.05484375 9.04445313 2.1171875 9.03515625 C1.41851563 9.02355469 0.71984375 9.01195312 0 9 C0 6.03 0 3.06 0 0 Z " fill="#EBEBEB" transform="translate(27,338)"/>
<path d="M0 0 C0.66 0 1.32 0 2 0 C2.50435694 1.9363704 3.00333874 3.87414146 3.5 5.8125 C3.7784375 6.89144531 4.056875 7.97039062 4.34375 9.08203125 C5 12 5 12 5 15 C2.36 15 -0.28 15 -3 15 C-2.01 10.05 -1.02 5.1 0 0 Z " fill="#F3F3F3" transform="translate(762,339)"/>
<path d="M0 0 C3.375 -0.125 3.375 -0.125 7 0 C7.66 0.66 8.32 1.32 9 2 C8.46428571 5.53571429 8.46428571 5.53571429 7 7 C4.66702567 7.04092937 2.33294775 7.04241723 0 7 C0 4.69 0 2.38 0 0 Z " fill="#262626" transform="translate(846,239)"/>
</svg>
