<svg width="119" height="27" viewBox="0 0 119 27" fill="none" xmlns="http://www.w3.org/2000/svg">
<path d="M5.488 26L8.908 4.472H0.196L0.808 0.619998H22.84L22.228 4.472H13.516L10.096 26H5.488ZM32.6714 26.36C31.0394 26.36 29.5754 26.132 28.2794 25.676C27.0074 25.196 25.9394 24.488 25.0754 23.552C24.2354 22.592 23.6474 21.404 23.3114 19.988C22.9994 18.548 22.9994 16.868 23.3114 14.948L25.5794 0.619998H30.1874L27.8834 15.272C27.5234 17.6 27.7634 19.376 28.6034 20.6C29.4674 21.8 30.9314 22.4 32.9954 22.4C34.9634 22.4 36.5114 21.896 37.6394 20.888C38.7674 19.856 39.5114 18.236 39.8714 16.028L42.3194 0.619998H46.8914L44.4794 15.956C44.1194 18.212 43.4714 20.12 42.5354 21.68C41.5994 23.216 40.3154 24.38 38.6834 25.172C37.0754 25.964 35.0714 26.36 32.6714 26.36ZM48.2703 26L52.3023 0.619998H62.2023C64.0743 0.619998 65.6463 0.907998 66.9183 1.484C68.1903 2.036 69.1503 2.84 69.7983 3.896C70.4463 4.928 70.7703 6.176 70.7703 7.64C70.7703 9.488 70.3503 11.012 69.5103 12.212C68.6943 13.412 67.5543 14.312 66.0903 14.912C64.6503 15.488 63.0063 15.764 61.1583 15.74V15.2H62.0943C63.2223 15.2 64.1463 15.524 64.8663 16.172C65.5863 16.796 66.1623 17.672 66.5943 18.8L69.3663 26H64.6503L61.6983 18.224C61.4823 17.648 61.2183 17.192 60.9063 16.856C60.6183 16.496 60.2583 16.244 59.8263 16.1C59.3943 15.932 58.8543 15.848 58.2063 15.848H54.4983L52.9143 26H48.2703ZM55.0383 12.428H61.1583C62.7903 12.428 64.0503 12.056 64.9383 11.312C65.8503 10.544 66.3063 9.44 66.3063 8C66.3063 6.752 65.9223 5.816 65.1543 5.192C64.3863 4.568 63.1743 4.256 61.5183 4.256H56.3343L55.0383 12.428ZM72.986 26L76.982 0.619998H93.614L93.038 4.292H81.05L79.898 11.456H91.13L90.554 15.128H79.322L77.594 26H72.986Z" fill="white"/>
<path d="M105.056 26.36C102.8 26.36 100.832 25.928 99.1518 25.064C97.4718 24.2 96.1638 22.94 95.2278 21.284C94.3158 19.604 93.8598 17.588 93.8598 15.236C93.8598 13.076 94.1598 11.084 94.7598 9.26C95.3838 7.436 96.2718 5.852 97.4238 4.508C98.5758 3.164 99.9678 2.12 101.6 1.376C103.232 0.631999 105.08 0.259999 107.144 0.259999C109.424 0.259999 111.392 0.691999 113.048 1.556C114.728 2.42 116.024 3.68 116.936 5.336C117.872 6.992 118.34 8.996 118.34 11.348C118.34 13.532 118.028 15.536 117.404 17.36C116.804 19.184 115.928 20.768 114.776 22.112C113.624 23.456 112.232 24.5 110.6 25.244C108.968 25.988 107.12 26.36 105.056 26.36ZM105.128 22.4C106.928 22.4 108.452 21.932 109.7 20.996C110.948 20.036 111.896 18.728 112.544 17.072C113.192 15.416 113.516 13.532 113.516 11.42C113.516 8.996 112.94 7.196 111.788 6.02C110.636 4.82 109.052 4.22 107.036 4.22C105.26 4.22 103.748 4.688 102.5 5.624C101.252 6.56 100.304 7.856 99.6558 9.512C99.0078 11.144 98.6838 13.028 98.6838 15.164C98.6838 17.612 99.2598 19.436 100.412 20.636C101.564 21.812 103.136 22.4 105.128 22.4Z" fill="#1DD05D"/>
</svg>
